PathFileType	4	(X/Y/Z)	c:/Users/goper/Files/vsCode/490R/osim_files/A03/A03_Static02.trc
DataRate	CameraRate	NumFrames	NumMarkers	Units                	OrigDataRate	OrigDataStartFrame	OrigNumFrames
250.00	250.00	9	36	mm	250.0	836	2227
                Frame#	Time	LPSIS			LASIS			LTH1			LTH2			LTH3			LTH4			LLFE			LMFE			LSH1			LSH2			LSH3			LSH4			LLMAL			LMMAL			LCAL			LMTP5			LTOE			LMTP1			RPSIS			RASIS			RTH1			RTH2			RTH3			RTH4			RLFE			RMFE			RSH1			RSH2			RSH3			RSH4			RLMAL			RMMAL			RCAL			RMTP1			RTOE			RMTP5		
		X1	Y1	Z1	X2	Y2	Z2	X3	Y3	Z3	X4	Y4	Z4	X5	Y5	Z5	X6	Y6	Z6	X7	Y7	Z7	X8	Y8	Z8	X9	Y9	Z9	X10	Y10	Z10	X11	Y11	Z11	X12	Y12	Z12	X13	Y13	Z13	X14	Y14	Z14	X15	Y15	Z15	X16	Y16	Z16	X17	Y17	Z17	X18	Y18	Z18	X19	Y19	Z19	X20	Y20	Z20	X21	Y21	Z21	X22	Y22	Z22	X23	Y23	Z23	X24	Y24	Z24	X25	Y25	Z25	X26	Y26	Z26	X27	Y27	Z27	X28	Y28	Z28	X29	Y29	Z29	X30	Y30	Z30	X31	Y31	Z31	X32	Y32	Z32	X33	Y33	Z33	X34	Y34	Z34	X35	Y35	Z35	X36	Y36	Z36

836	3.34000	-354.71350	1058.07544	404.71014	-107.67542	987.07831	299.69635	-179.62579	645.72882	228.69876	-168.57642	603.92310	225.11351	-116.77479	652.01782	238.83345	-117.28675	608.15674	236.12270	-175.90495	558.10077	231.63046	-130.27092	529.50537	379.36310	-232.95117	478.20941	233.56441	-238.56944	430.01489	230.52232	-172.53403	463.74002	225.41341	-187.26163	418.60727	227.31889	-287.45209	104.22200	231.58977	-256.87250	104.66776	321.22952	-346.85004	86.32376	297.68863	-148.24242	41.67887	182.69516	-102.78767	68.21804	243.87242	-122.50081	47.83463	294.16788	-361.45047	1063.90674	485.45447	-122.74199	988.02441	602.00067	-219.11404	634.35431	671.06299	-212.69641	590.09698	667.48749	-157.44942	637.09198	675.62799	-158.31897	592.33923	671.25122	-192.48387	546.57324	660.24884	-133.20796	540.01398	548.04529	-250.96596	485.98807	655.42834	-260.76062	447.52319	670.70532	-192.77464	471.61423	671.80005	-211.73074	430.29742	684.28430	-286.81769	129.65562	661.47949	-243.16498	128.93930	587.26398	0.00000	0.00000	0.00000	-121.83020	47.75580	596.00018	-99.77799	70.40218	648.72498	-142.46165	42.20514	713.24786
837	3.34400	-354.74280	1058.05933	404.71564	-107.66018	987.07446	299.65887	-179.59540	645.72064	228.70351	-168.59904	603.91028	225.12596	-116.79347	652.01819	238.83694	-117.29900	608.17108	236.10548	-175.91917	558.11224	231.61012	-130.26024	529.51581	379.34732	-232.94441	478.20239	233.55260	-238.58696	430.01758	230.52586	-172.56000	463.74756	225.42467	-187.28703	418.59494	227.31233	-287.42969	104.22064	231.60591	-256.86044	104.67087	321.21368	-346.84195	86.33036	297.70621	-148.23697	41.66812	182.70720	-102.75073	68.25119	243.86580	-122.46155	47.87741	294.14664	-361.46564	1063.91455	485.47141	-122.74262	988.05151	601.98444	-219.10983	634.37610	671.07306	-212.68086	590.10712	667.49640	-157.44119	637.09894	675.62091	-158.31590	592.34546	671.24530	-192.50250	546.60626	660.25867	-133.19232	540.00653	548.04926	-250.94264	485.98553	655.43231	-260.74475	447.53232	670.71313	-192.76155	471.62689	671.81122	-211.24457	430.54437	684.39783	-286.81943	129.68843	661.46881	-243.11981	128.96817	587.26556	0.00000	0.00000	0.00000	-121.83103	47.76765	596.00342	-99.75913	70.40362	648.70734	-142.46777	42.22882	713.22803
838	3.34800	-354.73395	1058.05664	404.73178	-107.66742	987.07794	299.67947	-179.65196	645.75385	228.70911	-168.61760	603.91052	225.12531	-116.80048	652.03595	238.83812	-117.30211	608.17120	236.11613	-175.91304	558.10468	231.63396	-130.28934	529.52167	379.33994	-232.99841	478.19977	233.60587	-238.62282	430.02438	230.54616	-172.56598	463.73032	225.41672	-187.29260	418.59964	227.30876	-287.44888	104.22723	231.59700	-256.87930	104.67587	321.20126	-346.87787	86.33221	297.69363	-148.25706	41.66848	182.71582	-102.49252	68.48355	243.71454	-122.46962	47.89913	294.13651	-361.45422	1063.90735	485.46808	-122.76739	988.06415	602.00433	-219.14154	634.37732	671.08325	-212.71516	590.11194	667.50708	-157.46094	637.09528	675.61761	-158.32521	592.36188	671.26624	-192.49872	546.60834	660.26123	-133.17014	540.00916	548.07581	-250.97031	485.99783	655.42932	-260.74344	447.52853	670.71143	-192.75970	471.64297	671.83289	-211.67862	430.35364	684.28394	-286.84525	129.67194	661.43872	-243.12772	128.97591	587.27795	0.00000	0.00000	0.00000	-121.82080	47.77131	595.98401	-99.76754	70.42668	648.71338	-142.46582	42.24417	713.22778
839	3.35200	-354.74408	1058.06592	404.73071	-107.72994	987.09021	299.69846	-178.92686	646.18481	228.25662	-168.64645	603.88971	225.15724	-116.81304	652.04364	238.84586	-117.33510	608.16858	236.11714	-175.94388	558.11133	231.64032	-130.32291	529.53314	379.32684	-233.00951	478.20483	233.59018	-238.61949	430.01935	230.53769	-172.55740	463.74036	225.42059	-187.32039	418.61935	227.31871	-287.42688	104.22156	231.58348	-256.90344	104.68645	321.19751	-346.86487	86.34594	297.68964	-148.26459	41.68643	182.70773	-102.85371	68.22572	243.78780	-122.46990	47.92204	294.12650	-361.48953	1063.90710	485.47241	-122.82238	988.08423	602.00458	-219.18570	634.39337	671.09607	-212.73216	590.12939	667.51178	-157.48848	637.12115	675.63617	-158.35063	592.37201	671.26886	-192.52364	546.61407	660.30035	-133.19051	540.01062	548.10089	-250.98950	486.00391	655.42352	-260.77087	447.55255	670.70392	-192.80226	471.64001	671.84247	-211.74883	430.33768	684.30249	-286.86185	129.69037	661.45654	-243.14211	128.97310	587.25964	0.00000	0.00000	0.00000	-121.84473	47.79642	595.99420	-99.77845	70.43462	648.69904	-142.47060	42.24365	713.21216
840	3.35600	-354.81531	1058.03894	404.75110	-107.74078	987.08960	299.71146	-178.94931	646.16296	228.25233	-168.64595	603.91907	225.15634	-116.82868	652.05475	238.85106	-117.37196	608.20074	236.12935	-175.97108	558.11121	231.65059	-130.36490	529.54156	379.35031	-233.01616	478.20505	233.59212	-238.62642	430.01791	230.53287	-172.61952	463.74112	225.42918	-187.31401	418.63113	227.32030	-287.43942	104.22701	231.58597	-256.93597	104.68794	321.20163	-346.89407	86.34775	297.67630	-148.25328	41.69886	182.70079	-102.47445	68.51170	243.71638	-122.50999	47.91495	294.12387	-361.54782	1063.89478	485.47693	-122.85283	988.08344	602.01276	-219.24049	634.40649	671.08093	-212.77086	590.13446	667.51678	-157.52034	637.13159	675.67426	-158.39514	592.36810	671.28717	-192.51208	546.59119	660.29071	-133.16360	540.03864	548.12347	-251.01685	486.01599	655.43750	-260.80096	447.55740	670.70416	-192.82845	471.62946	671.84534	-211.77084	430.32776	684.31256	-286.86606	129.69283	661.45203	-243.13817	128.98941	587.27441	0.00000	0.00000	0.00000	-121.85624	47.79446	595.96802	-99.76844	70.43767	648.70227	-142.49556	42.23788	713.22205
841	3.36000	-354.83286	1058.02881	404.76215	-107.77103	987.07233	299.70410	-179.75337	645.75580	228.75261	-168.67487	603.91718	225.16721	-116.84882	652.06787	238.84715	-117.35770	608.20685	236.11292	-175.96017	558.11945	231.62761	-130.36427	529.55908	379.36551	-233.02010	478.20169	233.58549	-238.64259	430.03104	230.53630	-172.57825	463.77521	225.42123	-187.33170	418.61234	227.31859	-287.45792	104.21732	231.59262	-256.91489	104.69379	321.21274	-346.87094	86.34613	297.68756	-148.27893	41.68610	182.69441	-102.47064	68.52643	243.74608	-122.49294	47.92038	294.12997	-361.53848	1063.87292	485.48016	-122.86310	988.09290	602.01605	-219.20825	634.38556	671.08832	-212.79959	590.13953	667.52740	-157.53264	637.13654	675.66498	-158.38994	592.36194	671.29553	-192.53252	546.57800	660.31573	-133.18060	540.02173	548.11841	-251.01631	486.01477	655.45178	-260.77493	447.56375	670.72394	-192.81818	471.63095	671.85107	-211.75192	430.32733	684.30823	-286.86075	129.69609	661.47937	-243.15569	128.98584	587.26770	0.00000	0.00000	0.00000	-121.84019	47.78283	595.98376	-99.77123	70.45351	648.70398	-142.49042	42.23324	713.23346
842	3.36400	-354.84290	1058.01331	404.77887	-107.79568	987.09827	299.70944	-179.01559	646.20312	228.28127	-168.68443	603.91937	225.16154	-116.89433	652.03369	238.84721	-117.39451	608.18646	236.13416	-175.99849	558.11237	231.64870	-130.35333	529.55377	379.36597	-233.04204	478.20065	233.59332	-238.66161	430.02890	230.54477	-172.60005	463.76184	225.42116	-187.36121	418.63049	227.33331	-287.45850	104.21386	231.59157	-256.88562	104.68777	321.22598	-346.88889	86.33259	297.67184	-148.28102	41.68125	182.68919	-102.31734	68.56315	243.67970	-122.51105	47.88290	294.14978	-361.53934	1063.85400	485.50061	-122.85586	988.07758	602.04034	-219.18628	634.37787	671.11212	-212.76425	590.10321	667.53644	-157.51697	637.12762	675.67755	-158.39314	592.35309	671.32019	-192.54274	546.56183	660.33295	-133.18005	540.04437	548.12933	-250.99739	485.99091	655.47034	-260.77402	447.52753	670.73602	-192.80344	471.61951	671.86243	-211.74095	430.30426	684.32642	-286.84003	129.66069	661.46393	-243.14439	128.98445	587.28418	0.00000	0.00000	0.00000	-121.83759	47.77036	596.00916	-99.77731	70.43520	648.72052	-142.48303	42.21954	713.24554
843	3.36800	-354.85504	1057.99792	404.78696	-107.84207	987.07642	299.75119	-179.76682	645.72278	228.76047	-168.72159	603.91913	225.18195	-116.89560	652.04327	238.84866	-117.41492	608.18048	236.13750	-175.99875	558.11029	231.65376	-130.37376	529.51050	379.39597	-233.05986	478.20898	233.59792	-238.65010	430.00800	230.53462	-172.65138	463.75476	225.44356	-187.37456	418.61691	227.33640	-287.25089	104.12575	231.72350	-256.90765	104.66660	321.20288	-346.88165	86.31894	297.68600	-148.28648	41.67765	182.70309	-102.82598	68.21401	243.87817	-122.52658	47.84764	294.15228	-361.57028	1063.84949	485.54230	-122.90336	988.03027	602.07416	-219.20775	634.35101	671.10950	-212.77821	590.07849	667.55121	-157.54816	637.09625	675.69360	-158.41524	592.33093	671.33380	-192.52936	546.53546	660.30548	-133.20145	540.03168	548.14508	-250.99985	485.94275	655.47974	-260.77615	447.50894	670.74194	-192.80644	471.60461	671.87207	-211.70123	430.30127	684.35193	-286.86148	129.64668	661.48108	-243.15926	128.97069	587.27704	0.00000	0.00000	0.00000	-121.86334	47.76679	596.00342	-99.76823	70.42049	648.72601	-142.48567	42.20208	713.23370
844	3.37200	-354.86670	1057.98157	404.82382	-107.84686	987.08313	299.72156	-179.07141	646.18066	228.26878	-168.72946	603.90234	225.16988	-116.92547	652.04950	238.86800	-117.41964	608.19305	236.13379	-176.01697	558.10437	231.66296	-130.42856	529.47528	379.42032	-233.05287	478.18347	233.58395	-238.70102	430.01755	230.55209	-172.64998	463.74512	225.43593	-187.38116	418.61307	227.34438	-287.26709	104.11102	231.75349	-256.89706	104.63870	321.24002	-346.88159	86.30429	297.68079	-148.26486	41.66205	182.69818	-102.86052	68.20435	243.86481	-122.51344	47.84667	294.19327	-361.59445	1063.83179	485.55139	-122.94094	987.99603	602.06012	-219.22443	634.31848	671.11951	-212.82262	590.06281	667.54761	-157.58403	637.08704	675.70807	-158.46024	592.32404	671.33569	-192.58914	546.53064	660.31726	-133.21750	540.01984	548.12000	-251.00803	485.91931	655.50244	-260.80475	447.45853	670.74884	-192.80284	471.58655	671.87415	-211.75952	430.26715	684.34674	-286.86560	129.60660	661.47937	-243.16505	128.95686	587.28802	0.00000	0.00000	0.00000	-121.87016	47.75162	596.01367	-99.78938	70.40911	648.74292	-142.48869	42.19740	713.26538
